<?xml version="1.0" encoding="UTF-8"?>
<svg version="1.1" xmlns="http://www.w3.org/2000/svg" width="2000" height="2000">
<path d="M0 0 C660 0 1320 0 2000 0 C2000 660 2000 1320 2000 2000 C1340 2000 680 2000 0 2000 C0 1340 0 680 0 0 Z " fill="#052E39" transform="translate(0,0)"/>
<path d="M0 0 C13.02084075 9.1118927 25.08982759 21.91900328 35.3359375 33.92578125 C37.15149253 35.97833181 39.05931411 37.89777256 41.01171875 39.8203125 C44.20433187 42.9701128 47.18333154 46.23250739 50.10546875 49.6328125 C52.32117523 52.17542649 54.60270467 54.65141448 56.88671875 57.1328125 C61.01078551 61.64935087 64.8910874 66.31164266 68.73046875 71.0703125 C71.07890843 73.90130828 73.52081777 76.61414848 76.01171875 79.3203125 C80.90534839 84.64993372 85.47466564 90.1866257 90.01171875 95.8203125 C91.03300842 97.07360632 92.05519874 98.32616659 93.078125 99.578125 C108.8850043 118.93541447 124.41682297 138.58212694 138.76806641 159.04980469 C140.13873152 161.00113241 141.51804515 162.94616716 142.8984375 164.890625 C149.69440051 174.47163901 156.41656406 184.09992771 163.01171875 193.8203125 C163.68009766 194.80322266 164.34847656 195.78613281 165.03710938 196.79882812 C174.75818454 211.12688498 184.04032581 225.58064873 192.70410156 240.58154297 C194.41585683 243.51223674 196.20584141 246.38414462 198.01171875 249.2578125 C243.52625506 322.7666452 280.67533145 405.7504386 302.3737793 495.15649414 C303.06280183 498.03361806 303.77665161 500.90377338 304.49609375 503.7734375 C304.7480249 504.77930908 304.99995605 505.78518066 305.25952148 506.8215332 C305.7435838 508.75134085 306.22868877 510.68088743 306.71508789 512.61010742 C311.67958351 532.49790143 315.04256572 552.55411681 318.01171875 572.8203125 C318.1156897 573.52263 318.21966064 574.22494751 318.32678223 574.94854736 C330.11760105 654.92239963 324.38158784 737.08761771 300.01171875 844.8203125 C299.61133425 846.24257893 299.21446537 847.66583776 298.8203125 849.08984375 C285.48840457 897.09944369 268.38087368 943.79624726 247.01171875 988.8203125 C246.52993164 989.83883301 246.04814453 990.85735352 245.55175781 991.90673828 C242.08056584 999.23192446 238.5599544 1006.53217259 235.01171875 1013.8203125 C234.55297363 1014.76648437 234.09422852 1015.71265625 233.62158203 1016.6875 C227.11811454 1030.06445583 220.06787845 1043.048909 212.65576172 1055.94238281 C211.03799396 1058.77431723 209.44456506 1061.61847058 207.859375 1064.46875 C191.46478373 1093.90276038 173.14077732 1122.10412179 154.01171875 1149.8203125 C153.40650391 1150.6978418 152.80128906 1151.57537109 152.17773438 1152.47949219 C145.32940402 1162.3892113 138.3478433 1172.16960671 131.06640625 1181.765625 C128.89375897 1184.63374558 126.75933941 1187.52647199 124.64453125 1190.4375 C117.81903345 1199.82626431 110.76226095 1208.92040168 103.3203125 1217.828125 C100.2620418 1221.49451937 97.31133052 1225.2344961 94.38671875 1229.0078125 C88.8284485 1236.15024559 82.95032272 1242.99332898 77.01171875 1249.8203125 C75.39074058 1251.68972212 73.77055789 1253.55981922 72.15039062 1255.42993164 C71.06131537 1256.68629483 69.97147598 1257.94199606 68.88085938 1259.19702148 C66.16090062 1262.32881073 63.45337911 1265.46999603 60.76953125 1268.6328125 C51.66957906 1279.35068988 51.66957906 1279.35068988 46.58203125 1284.25390625 C44.81642436 1286.01512109 43.19947278 1287.86654156 41.57421875 1289.7578125 C38.53854042 1293.28245916 35.30947004 1296.54268139 31.99609375 1299.8046875 C29.42185172 1302.41946878 27.03003693 1305.16772512 24.65234375 1307.9609375 C23.01171875 1309.8203125 23.01171875 1309.8203125 20.94091773 1311.45773816 C18.30694325 1314.68340881 18.45502492 1317.49545182 18.50391006 1321.48087692 C18.49760631 1322.26045582 18.49130256 1323.04003472 18.48480779 1323.84323722 C18.46846634 1326.47136978 18.48074012 1329.09860053 18.49273682 1331.72674561 C18.48686492 1333.62348724 18.47923964 1335.52022413 18.47000575 1337.41695237 C18.44967324 1342.64132027 18.45431823 1347.86541776 18.46291327 1353.08980727 C18.4678432 1358.71899621 18.44979181 1364.34811593 18.43449402 1369.97727966 C18.41114148 1379.73425612 18.40243526 1389.49115818 18.4036026 1399.24816132 C18.40526933 1413.35523154 18.38496268 1427.46220234 18.3592473 1441.56924608 C18.3181273 1464.45550667 18.29480927 1487.34173675 18.28271484 1510.22802734 C18.27092209 1532.46339631 18.25075542 1554.69873189 18.21923828 1576.93408203 C18.21827033 1577.61932759 18.21730238 1578.30457315 18.2163051 1579.01058372 C18.20657538 1585.89202604 18.19667528 1592.77346809 18.18665033 1599.65490998 C18.10257669 1657.37669355 18.04726029 1715.09847961 18.01171875 1772.8203125 C18.67171875 1772.8203125 19.33171875 1772.8203125 20.01171875 1772.8203125 C20.22741516 1772.27333112 20.44311157 1771.72634974 20.66534424 1771.16279316 C22.46857504 1768.02545415 24.93230866 1765.78392415 27.55371094 1763.34062195 C28.12570599 1762.79866851 28.69770103 1762.25671507 29.28702927 1761.69833881 C30.5410632 1760.51104075 31.79741825 1759.32619071 33.05577087 1758.14347076 C36.55902077 1754.84985751 40.04424768 1751.53723089 43.53222656 1748.22746277 C44.27741547 1747.52126026 45.02260437 1746.81505774 45.79037476 1746.08745515 C55.3756795 1736.99485228 64.85557257 1727.79295373 74.33545685 1718.59068429 C83.54819591 1709.64780744 92.79101876 1700.74402873 102.15625 1691.96069336 C109.60413491 1684.97521457 116.96521047 1677.90983831 124.24026871 1670.74440414 C128.08391201 1666.96436836 131.95489322 1663.23244033 135.93395996 1659.59479332 C151.79219686 1645.04879249 163.49649827 1632.91482063 164.73883057 1610.59695911 C164.9354117 1603.72617102 164.75794099 1596.88288611 164.36912632 1590.02176708 C163.83980631 1580.58674548 164.49823413 1571.34353671 165.32421875 1561.9453125 C165.46569832 1560.22761896 165.60613776 1558.50983941 165.74551582 1556.79197407 C171.22133857 1489.55543445 183.48335891 1422.39308324 203.01171875 1357.8203125 C203.5528833 1356.01046875 203.5528833 1356.01046875 204.10498047 1354.1640625 C210.22709382 1333.71488247 217.14705638 1313.6656762 225.01171875 1293.8203125 C225.26653015 1293.17727173 225.52134155 1292.53423096 225.78387451 1291.8717041 C234.20188485 1270.70295264 243.80882408 1250.18215639 254.01171875 1229.8203125 C254.54651855 1228.74813477 255.08131836 1227.67595703 255.63232422 1226.57128906 C267.44177452 1203.01387599 281.04264189 1180.49889502 296.01171875 1158.8203125 C296.8003833 1157.67248291 296.8003833 1157.67248291 297.60498047 1156.50146484 C304.02174003 1147.18681386 310.71382593 1138.14877619 317.79931641 1129.33251953 C318.89251163 1127.96899734 319.97431528 1126.59636089 321.0546875 1125.22265625 C332.81165626 1110.31433504 345.47328737 1096.12884599 359.01171875 1082.8203125 C361.97160218 1079.87584513 364.90758922 1076.90926071 367.83203125 1073.9296875 C374.72809844 1066.92960723 381.53905133 1060.05163507 389.28125 1053.984375 C392.56930079 1051.37839483 395.72069328 1048.63449091 398.88671875 1045.8828125 C405.40349584 1040.26371417 412.10521353 1034.9525831 419.01171875 1029.8203125 C419.63933105 1029.35077148 420.26694336 1028.88123047 420.91357422 1028.39746094 C471.3420418 990.80689712 527.44652729 962.34740421 586.01171875 939.8203125 C586.92195801 939.46453125 587.83219727 939.10875 588.77001953 938.7421875 C628.43964522 923.28828115 670.33102575 912.23827518 712.01171875 903.8203125 C714.1732677 903.37544008 716.33472711 902.93013232 718.49609375 902.484375 C724.66016914 901.22183072 730.83247509 900.00626995 737.01171875 898.8203125 C737.87812988 898.65321777 738.74454102 898.48612305 739.63720703 898.31396484 C769.30712568 892.67262219 799.57423791 888.61825068 829.6574707 886.02471924 C832.34042771 885.79177246 835.02271252 885.5516704 837.70507812 885.31201172 C861.54397696 883.20284382 885.31829758 881.43351616 909.26171875 881.4453125 C910.60982635 881.44272934 910.60982635 881.44272934 911.98516846 881.44009399 C914.52039678 881.44065116 917.05476228 881.45816967 919.58984375 881.484375 C920.31563629 881.48677689 921.04142883 881.48917877 921.78921509 881.49165344 C934.47879633 881.72266724 945.77054954 886.03248367 955.01171875 894.8203125 C965.27164762 906.67623031 965.6492681 920.47049506 965.44921875 935.3203125 C965.44206848 936.26493347 965.43491821 937.20955444 965.42755127 938.18280029 C965.11375899 978.7023848 961.72265635 1018.79634921 956.38919067 1058.94219971 C955.99612602 1061.93920253 955.61749527 1064.93776663 955.24194336 1067.93701172 C953.99898517 1077.80849779 952.68895509 1087.59028933 950.57421875 1097.3203125 C949.13745296 1104.18966539 947.77162248 1111.04858658 946.64306641 1117.97558594 C941.48738835 1149.56758456 933.6599305 1181.24600831 923.6875 1211.63671875 C922.31964016 1215.81512136 921.0644474 1220.01612405 919.84716797 1224.24047852 C916.56531508 1235.58035166 912.52941591 1246.57498638 908.26660156 1257.57958984 C906.97185461 1260.92326126 905.69115785 1264.27213523 904.41015625 1267.62109375 C898.12932198 1283.92980553 891.28451333 1299.93078119 884.01171875 1315.8203125 C883.61243164 1316.70009766 883.21314453 1317.57988281 882.80175781 1318.48632812 C877.28368687 1330.61364101 871.10309711 1342.3198272 864.61181641 1353.95263672 C863.53239206 1355.88716805 862.45662534 1357.82374419 861.38427734 1359.76220703 C854.72528178 1371.799089 847.84959937 1383.59483125 840.20361328 1395.03320312 C839.12701092 1396.6474451 838.0664257 1398.27234159 837.0078125 1399.8984375 C820.98458706 1424.3848697 802.70652106 1447.21073775 783.01171875 1468.8203125 C782.20734375 1469.7175 781.40296875 1470.6146875 780.57421875 1471.5390625 C775.13961766 1477.55594228 769.54658068 1483.38851563 763.82421875 1489.1328125 C763.17122803 1489.79039551 762.5182373 1490.44797852 761.84545898 1491.12548828 C757.97330089 1494.98545904 753.9873602 1498.65575188 749.84887695 1502.22827148 C747.41897443 1504.33397173 745.06089 1506.51361309 742.69921875 1508.6953125 C737.29674355 1513.61608552 731.70934294 1518.2473174 726.01171875 1522.8203125 C724.87973089 1523.74420699 723.74824388 1524.6687154 722.6171875 1525.59375 C708.36727698 1537.19251438 693.435213 1547.84152509 678.01171875 1557.8203125 C677.315625 1558.27196777 676.61953125 1558.72362305 675.90234375 1559.18896484 C627.94617615 1590.19254217 576.72597687 1613.71742349 523.01171875 1632.8203125 C522.36902039 1633.04908081 521.72632202 1633.27784912 521.06414795 1633.5135498 C494.36442385 1643.00430815 494.36442385 1643.00430815 482.3515625 1645.9765625 C479.32700964 1646.74066006 476.34869083 1647.60310786 473.36499023 1648.51220703 C439.87796805 1658.69572305 405.49273527 1665.12881659 371.01171875 1670.8203125 C368.89575235 1671.17138723 366.7798595 1671.5229058 364.6640625 1671.875 C363.71063965 1672.03355469 362.7572168 1672.19210937 361.77490234 1672.35546875 C359.07204106 1672.81016462 356.37198829 1673.27929722 353.671875 1673.75 C326.44753062 1678.41094869 299.06441114 1680.85956664 271.51171875 1682.5078125 C270.50295685 1682.56856964 269.49419495 1682.62932678 268.4548645 1682.69192505 C266.51761313 1682.80676155 264.58016887 1682.91840756 262.64251423 1683.02622581 C260.64671013 1683.14034568 258.65135636 1683.26294867 256.65682316 1683.39746499 C251.12843886 1683.73621343 245.76620066 1683.79672999 240.23776245 1683.42325974 C226.75353776 1682.74483104 216.91791937 1683.55922324 206.62353516 1692.84136963 C203.32804789 1695.97932028 200.16764414 1699.21888205 197.04962611 1702.53256774 C194.5673193 1705.13779608 192.00239098 1707.65966525 189.44752502 1710.19340515 C185.04886919 1714.57749697 180.70372245 1719.00919788 176.39242554 1723.47916412 C170.15441332 1729.94658433 163.83872413 1736.33352951 157.50258482 1742.70466861 C147.2140905 1753.05419643 136.98944715 1763.46444837 126.80419922 1773.91552734 C116.93263647 1784.04445828 107.0318389 1794.14330258 97.09033203 1804.20361328 C96.47649595 1804.82480562 95.86265987 1805.44599795 95.2302227 1806.0860143 C92.14934607 1809.20344378 89.06788233 1812.32029216 85.98612213 1815.43684816 C64.78563094 1836.87790463 43.64809263 1858.37955608 22.5750885 1879.94590759 C21.68883978 1880.85286495 20.80259106 1881.75982231 19.88948631 1882.69426322 C18.25666158 1884.36561519 16.62417407 1886.03729671 14.99210548 1887.70938706 C4.31749581 1898.63996727 -4.80228688 1907.61203947 -20.92578125 1908.2578125 C-35.61502245 1907.82466821 -46.12828022 1899.24125209 -55.82041931 1889.02593994 C-57.08373159 1887.71567184 -57.08373159 1887.71567184 -58.37256533 1886.37893367 C-60.208486 1884.47301037 -62.04121484 1882.56453762 -63.86918068 1880.6510334 C-66.84589375 1877.53554653 -69.83447212 1874.4316142 -72.82537842 1871.32975769 C-73.87539641 1870.2406499 -74.92541219 1869.15153997 -75.97542584 1868.062428 C-76.50450878 1867.51369022 -77.03359172 1866.96495245 -77.57870747 1866.39958626 C-79.2199858 1864.69656966 -80.86018191 1862.99251672 -82.50014961 1861.28823805 C-90.51003141 1852.96697932 -98.55905964 1844.68483712 -106.63172913 1836.42449951 C-107.2178369 1835.82467118 -107.80394468 1835.22484285 -108.4078133 1834.6068379 C-113.84935972 1829.03849951 -119.29356417 1823.47276391 -124.73976314 1817.90897608 C-128.46926793 1814.09872733 -132.19736313 1810.28710425 -135.92407227 1806.47412109 C-136.54286818 1805.84103778 -137.16166409 1805.20795446 -137.79921139 1804.5556868 C-147.77882439 1794.34072575 -157.67460593 1784.04812206 -167.54241293 1773.72525313 C-177.71956022 1763.08289185 -187.98938981 1752.53642915 -198.34587008 1742.06848693 C-204.14151444 1736.20503608 -209.88843278 1730.30715455 -215.5301342 1724.29511261 C-243.10195195 1693.58413907 -243.10195195 1693.58413907 -280.95092869 1681.00989914 C-289.12700968 1680.84243125 -297.19580835 1681.33080397 -305.30210209 1682.37827682 C-309.74478807 1682.91482026 -313.57888387 1682.54374354 -317.98828125 1681.8203125 C-319.35664404 1681.73460543 -320.72684389 1681.66974868 -322.09765625 1681.64453125 C-346.17437584 1680.95639899 -370.26400965 1677.84151258 -393.9921875 1673.81640625 C-399.33533665 1672.91101232 -404.69122927 1672.13188393 -410.05664062 1671.37109375 C-424.15043428 1669.36571617 -438.06794274 1666.79296233 -451.98828125 1663.8203125 C-452.76333008 1663.65563477 -453.53837891 1663.49095703 -454.33691406 1663.32128906 C-458.66940716 1662.3944373 -462.99111038 1661.4252782 -467.30908203 1660.43310547 C-469.30129759 1659.97744108 -471.29464591 1659.52672352 -473.28857422 1659.07861328 C-489.45716326 1655.44334256 -505.42169211 1651.42782374 -521.28857422 1646.62158203 C-523.7859349 1645.88036863 -526.28935279 1645.18121171 -528.8046875 1644.50390625 C-565.25532034 1634.64834801 -600.82959601 1620.84579441 -634.98828125 1604.8203125 C-636.35339844 1604.18295166 -636.35339844 1604.18295166 -637.74609375 1603.53271484 C-694.82611628 1576.81010996 -747.5811123 1542.54847083 -793.98828125 1499.8203125 C-794.90649658 1498.97774902 -794.90649658 1498.97774902 -795.84326172 1498.11816406 C-805.45875916 1489.27089739 -814.67007851 1480.18144035 -823.45410156 1470.50732422 C-824.8812783 1468.93797488 -826.31898533 1467.37925764 -827.76171875 1465.82421875 C-832.53376789 1460.64838084 -837.1058329 1455.35624578 -841.5234375 1449.875 C-843.329133 1447.6371967 -845.14807437 1445.41549351 -846.984375 1443.203125 C-858.93526388 1428.75080273 -869.80373331 1413.561836 -879.98828125 1397.8203125 C-880.43993652 1397.12421875 -880.8915918 1396.428125 -881.35693359 1395.7109375 C-915.68842341 1342.60717266 -940.74874959 1285.58536784 -960.98828125 1225.8203125 C-961.21642517 1225.15049347 -961.44456909 1224.48067444 -961.67962646 1223.79055786 C-964.30178586 1216.08677866 -966.78741402 1208.37855243 -968.86328125 1200.5078125 C-969.37095439 1198.60803567 -969.8787731 1196.70829774 -970.38671875 1194.80859375 C-970.64678711 1193.83100098 -970.90685547 1192.8534082 -971.17480469 1191.84619141 C-972.00359599 1188.76334645 -972.85636397 1185.68798172 -973.71484375 1182.61328125 C-977.81917777 1167.82135665 -981.2527488 1152.9609569 -984.34472656 1137.92626953 C-984.9056249 1135.21923286 -985.48320558 1132.51699268 -986.07421875 1129.81640625 C-988.07491015 1120.64386971 -989.82835822 1111.43557182 -991.48828125 1102.1953125 C-991.677854 1101.14279297 -991.86742676 1100.09027344 -992.06274414 1099.00585938 C-992.72214525 1095.28022926 -993.3602424 1091.55132702 -993.98828125 1087.8203125 C-994.13699677 1086.94062805 -994.28571228 1086.0609436 -994.43893433 1085.15460205 C-997.1012142 1069.29733206 -999.28792144 1053.42700142 -1001.05078125 1037.4453125 C-1001.17801575 1036.29843964 -1001.30525024 1035.15156677 -1001.43634033 1033.96994019 C-1005.0184326 1001.33425095 -1007.21593783 968.59737122 -1007.30078125 935.7578125 C-1007.30454773 934.95320587 -1007.30831421 934.14859924 -1007.31219482 933.3196106 C-1007.35005159 917.6426373 -1005.9317193 904.89158355 -994.73828125 892.9453125 C-985.54177469 884.31973 -974.69574695 881.506767 -962.35546875 881.51953125 C-961.54191925 881.5139772 -960.72836975 881.50842316 -959.89016724 881.50270081 C-957.21435936 881.49084534 -954.53909015 881.49726942 -951.86328125 881.5078125 C-950.93177246 881.50930298 -950.00026367 881.51079346 -949.04052734 881.5123291 C-915.82945218 881.60650305 -882.75857099 884.19927423 -849.82275391 888.34716797 C-846.10323745 888.80612779 -842.38173201 889.2292836 -838.65625 889.63671875 C-837.50294189 889.76369141 -836.34963379 889.89066406 -835.16137695 890.02148438 C-833.08863739 890.24856666 -831.01559629 890.47292995 -828.94213867 890.69335938 C-821.81627792 891.4930945 -814.78424532 892.69451189 -807.73193359 893.97045898 C-802.61344928 894.89488933 -797.48489482 895.75593415 -792.35546875 896.6171875 C-770.05646453 900.38556407 -747.96882943 904.47543643 -725.98828125 909.8203125 C-724.11206018 910.26596622 -722.23576353 910.7113019 -720.359375 911.15625 C-709.84724592 913.68222035 -699.4872265 916.62926181 -689.16357422 919.83496094 C-686.82512195 920.56062551 -684.48569933 921.28257074 -682.14501953 922.00097656 C-645.91640509 933.12940924 -610.32507746 945.66412927 -575.98828125 961.8203125 C-575.40048889 962.09659485 -574.81269653 962.3728772 -574.20709229 962.65753174 C-556.57933206 970.95384037 -539.21865196 979.51377369 -522.41357422 989.39892578 C-520.16919778 990.7142831 -517.91261005 992.00426954 -515.6484375 993.28515625 C-491.48797236 1007.05402348 -468.63559204 1023.39141729 -446.98828125 1040.8203125 C-446.01246094 1041.60148437 -445.03664063 1042.38265625 -444.03125 1043.1875 C-438.65101788 1047.53683449 -433.44512128 1052.03528108 -428.33203125 1056.6953125 C-426.18135414 1058.64525974 -424.00003154 1060.55057379 -421.80078125 1062.4453125 C-418.67702588 1065.16216587 -415.75871603 1068.02296496 -412.86328125 1070.97973633 C-411.05643221 1072.75341275 -409.18869074 1074.39064295 -407.2578125 1076.02734375 C-402.94921615 1079.77545618 -399.05277066 1083.82037693 -395.17578125 1088.0078125 C-394.48218506 1088.7517627 -393.78858887 1089.49571289 -393.07397461 1090.26220703 C-391.68441984 1091.75454285 -390.29675675 1093.24864263 -388.91113281 1094.74462891 C-387.22022771 1096.56993048 -385.52341394 1098.38945402 -383.82421875 1100.20703125 C-378.82256101 1105.58013753 -374.02102329 1111.07458354 -369.421875 1116.796875 C-367.61858757 1119.03723531 -365.79980217 1121.25798655 -363.9609375 1123.46875 C-356.66979134 1132.26992282 -349.8998458 1141.31907601 -343.42480469 1150.73535156 C-342.03138084 1152.75775804 -340.62505417 1154.77052414 -339.21484375 1156.78125 C-301.936481 1210.13315779 -274.24637864 1269.28936489 -253.30078125 1330.7578125 C-253.01445831 1331.5975058 -252.72813538 1332.4371991 -252.43313599 1333.30233765 C-246.99904721 1349.31003817 -242.23204813 1365.43924629 -238.05078125 1381.8203125 C-237.88153137 1382.48084625 -237.71228149 1383.14138 -237.53790283 1383.82192993 C-226.86897163 1425.47005056 -218.20702032 1467.18015444 -212.8752594 1509.8462677 C-212.2558291 1514.78318722 -211.5909077 1519.71061407 -210.890625 1524.63671875 C-208.63401586 1540.8541179 -207.29879091 1557.04178392 -206.30078125 1573.3828125 C-206.20950958 1574.86232895 -206.20950958 1574.86232895 -206.11639404 1576.37173462 C-206.00131408 1578.27102912 -205.89065184 1580.17059845 -205.78521538 1582.07045269 C-205.6683744 1584.06099094 -205.53645356 1586.05074396 -205.38443565 1588.03890514 C-205.00108393 1593.71728819 -205.05372367 1598.98222632 -205.81280518 1604.62792969 C-207.09835837 1617.08522753 -206.37897294 1627.06679696 -198.3502655 1637.09300232 C-191.17953255 1645.57891373 -183.07356377 1653.21595231 -175.0110271 1660.83938479 C-170.95156785 1664.70931211 -166.97875182 1668.66634612 -162.99537659 1672.61427307 C-155.46457284 1680.05239907 -147.86077499 1687.41083624 -140.22655112 1694.74261385 C-131.52862406 1703.10340247 -122.9173046 1711.5511451 -114.31161773 1720.00668418 C-96.63080407 1737.37521528 -78.84582835 1754.63367206 -60.98828125 1771.8203125 C-60.48421942 1713.72143503 -60.09676919 1655.62271523 -59.864844 1597.52208769 C-59.83740485 1590.6556718 -59.80888036 1583.78926062 -59.77978516 1576.92285156 C-59.77690846 1576.23959547 -59.77403176 1575.55633937 -59.77106789 1574.85237854 C-59.67747389 1552.74315741 -59.51234601 1530.63518089 -59.30974239 1508.52671244 C-59.09584631 1485.14327669 -58.96426576 1461.76087728 -58.91833436 1438.37638581 C-58.88821471 1424.38058771 -58.79326337 1410.38836437 -58.61411898 1396.39366741 C-58.49740595 1386.78385495 -58.46277052 1377.17587761 -58.49125095 1367.56540863 C-58.50528301 1362.02720718 -58.48451353 1356.49522777 -58.3657608 1350.95814705 C-56.99977545 1324.66907145 -56.99977545 1324.66907145 -68.69151342 1302.33134568 C-72.34173029 1298.82736323 -76.29899105 1295.76880023 -80.40007663 1292.81114602 C-84.16118187 1289.91812345 -87.01585717 1286.48679453 -89.98828125 1282.8203125 C-90.9768881 1281.73283019 -91.97295801 1280.65202349 -92.98046875 1279.58203125 C-93.45307129 1279.07784668 -93.92567383 1278.57366211 -94.41259766 1278.05419922 C-94.89132324 1277.5438916 -95.37004883 1277.03358398 -95.86328125 1276.5078125 C-100.37815263 1271.66028123 -104.62859186 1266.66721805 -108.77734375 1261.5 C-111.09763075 1258.68777935 -113.51899259 1256.00233987 -115.98828125 1253.3203125 C-120.88322159 1247.99413321 -125.45202073 1242.45236597 -129.98828125 1236.8203125 C-131.40352775 1235.08998329 -132.82021844 1233.3608344 -134.23828125 1231.6328125 C-135.35009766 1230.2715625 -135.35009766 1230.2715625 -136.484375 1228.8828125 C-138.32674846 1226.62942593 -140.17361152 1224.38005978 -142.0234375 1222.1328125 C-149.6138659 1212.8850203 -156.88518371 1203.44606719 -163.98828125 1193.8203125 C-165.12360501 1192.28769159 -166.2590246 1190.75514166 -167.39453125 1189.22265625 C-170.93929734 1184.43175263 -174.46804318 1179.62926209 -177.98828125 1174.8203125 C-178.54161133 1174.06459961 -179.09494141 1173.30888672 -179.66503906 1172.53027344 C-188.00612706 1161.11641386 -196.07456701 1149.53407314 -203.98828125 1137.8203125 C-204.42205078 1137.18061523 -204.85582031 1136.54091797 -205.30273438 1135.88183594 C-227.9253998 1102.48561907 -248.33405078 1067.68013005 -267.2578125 1032.07275391 C-268.37868381 1029.96605984 -269.50343983 1027.86142618 -270.6328125 1025.75927734 C-290.04784922 989.60408578 -306.07416597 951.53591257 -320.01953125 912.96826172 C-322.19514528 906.95571276 -322.19514528 906.95571276 -324.48046875 900.984375 C-328.08804885 891.75141577 -330.91476263 882.42001379 -333.5625 872.87109375 C-334.72029695 868.71028508 -336.01092803 864.61010137 -337.36328125 860.5078125 C-343.79557267 840.540298 -348.24671437 819.68070146 -352.50195312 799.15820312 C-352.92994961 797.10072606 -353.37206937 795.04619762 -353.81640625 792.9921875 C-357.70747394 774.53031314 -360.09273967 755.80898216 -362.17578125 737.0703125 C-362.26036591 736.31376373 -362.34495056 735.55721497 -362.43209839 734.77774048 C-364.16808792 719.14278424 -365.15480144 703.65765323 -365.19140625 687.9296875 C-365.19423363 687.09132607 -365.197061 686.25296463 -365.19997406 685.3891983 C-365.21487059 680.93442995 -365.22415478 676.47969307 -365.22851562 672.02490234 C-365.23285856 668.42421096 -365.24659999 664.82376484 -365.26953125 661.22314453 C-365.41687788 637.57797134 -364.6546228 614.3236793 -361.98828125 590.8203125 C-361.87232605 589.79039185 -361.75637085 588.76047119 -361.63690186 587.69934082 C-360.9564243 581.80759511 -360.16523356 575.93764767 -359.30078125 570.0703125 C-359.17744415 569.21506989 -359.05410706 568.35982727 -358.92703247 567.47866821 C-356.15813517 548.40542261 -352.27430364 529.6038901 -347.98828125 510.8203125 C-347.73127441 509.6869043 -347.47426758 508.55349609 -347.20947266 507.38574219 C-345.86871668 501.51328698 -344.46489378 495.66001537 -342.98828125 489.8203125 C-342.81876953 489.1411377 -342.64925781 488.46196289 -342.47460938 487.76220703 C-340.45122712 479.69820209 -338.03405253 471.84833624 -335.34375 463.984375 C-333.42118728 458.21810362 -331.82513937 452.3526278 -330.21923828 446.49169922 C-328.72856256 441.13002521 -326.99158748 435.92113211 -325.05297852 430.70507812 C-323.94224282 427.69557273 -322.88277457 424.67157023 -321.83203125 421.640625 C-301.76172657 364.11205625 -275.18957584 307.39053935 -243.48974609 255.29541016 C-241.96040706 252.77436315 -240.45043133 250.24260359 -238.9453125 247.70703125 C-223.06982109 220.99267611 -205.85031059 195.24222552 -187.98828125 169.8203125 C-187.27744385 168.80614258 -187.27744385 168.80614258 -186.55224609 167.77148438 C-179.48162559 157.69931348 -172.07698106 147.88039268 -164.66845703 138.05566406 C-163.26534187 136.18892148 -161.87076851 134.31666536 -160.484375 132.4375 C-155.80143735 126.10734119 -150.91287882 119.97460124 -145.92529297 113.8840332 C-142.3829827 109.55528679 -138.9147922 105.17848893 -135.48828125 100.7578125 C-130.12283157 93.86817623 -124.42379918 87.29336408 -118.66308594 80.73339844 C-116.39758409 78.14557447 -114.15138503 75.54131014 -111.90429688 72.9375 C-106.98123168 67.23528616 -102.01315134 61.58158421 -96.953125 56 C-95.17001461 54.0219173 -93.41813356 52.0217545 -91.67578125 50.0078125 C-82.43670179 39.43090987 -72.71263108 29.31043961 -62.81494141 19.35180664 C-61.50578661 18.03102437 -60.20113914 16.70576025 -58.90087891 15.3762207 C-42.57846091 -1.31095545 -22.81285314 -13.5353274 0 0 Z " fill="#36E4CC" transform="translate(1020.98828125,49.1796875)"/>
<path d="M0 0 C6.77477259 3.04052974 11.36531335 9.31911371 16.125 14.84375 C18.17359094 17.19962958 20.27203002 19.5050746 22.375 21.8125 C25.50422827 25.27530082 28.50500349 28.80679003 31.4375 32.4375 C34.46717714 36.18652856 37.59604948 39.77972867 40.875 43.3125 C45.03879355 47.84142621 48.86285098 52.53717302 52.62158203 57.39916992 C55.67365559 61.33874461 58.80369523 65.19854351 61.99707031 69.02441406 C69.71996096 78.2789755 77.00085983 87.81732542 84.16064453 97.51220703 C85.93202067 99.90805556 87.71278177 102.29662187 89.49609375 104.68359375 C102.42514422 122.04017539 114.7454265 139.83770378 126.63378906 157.921875 C127.52157506 159.27227429 128.41143506 160.62131318 129.30371094 161.96875 C179.30728285 237.52631792 220.08892825 320.84277801 246 415 C246.39581541 416.45646646 246.79164999 417.91292771 247.1875 419.36938477 C250.15400504 430.36615329 252.73009308 441.40200623 255 452.5625 C255.16953186 453.38995728 255.33906372 454.21741455 255.51373291 455.06994629 C260.28047853 478.45046841 264.15780327 502.19461836 266 526 C266.08540039 526.99451172 266.17080078 527.98902344 266.25878906 529.01367188 C267.34196113 543.40161336 267.243044 557.82948653 267.25 572.25 C267.25073643 572.94874866 267.25147285 573.64749733 267.2522316 574.3674202 C267.27140243 596.7139309 266.6102215 618.79005879 264 641 C263.76857602 643.15614769 263.53805741 645.31239281 263.30859375 647.46875 C259.72890731 679.63157262 253.36918833 711.88930341 243.94873047 742.86523438 C243.23887993 745.21070039 242.5376133 747.55787042 241.84423828 749.90820312 C216.15741833 836.9552724 175.91207747 918.35172735 126 994 C125.33097656 995.02351563 124.66195313 996.04703125 123.97265625 997.1015625 C116.87199262 1007.88462718 109.4043232 1018.42463526 102 1029 C101.52272461 1029.68384766 101.04544922 1030.36769531 100.55371094 1031.07226562 C85.83636247 1052.12992606 69.76235319 1072.25610173 53.51171875 1092.14306641 C52.09375329 1093.88483729 50.68556234 1095.63393276 49.28125 1097.38671875 C48.4871875 1098.37285156 47.693125 1099.35898438 46.875 1100.375 C46.19179687 1101.22835938 45.50859375 1102.08171875 44.8046875 1102.9609375 C43 1105 43 1105 40 1107 C39.99902319 1105.9894883 39.99804638 1104.97897659 39.99703997 1103.93784332 C39.95379627 1059.40508472 39.90685194 1014.87233111 39.84101868 970.33959961 C39.84002311 969.66543978 39.83902754 968.99127996 39.83800181 968.29669105 C39.81634349 953.64553137 39.79402081 938.99437278 39.77101372 924.34321517 C39.75973516 917.15833504 39.74860341 909.97345469 39.73754883 902.78857422 C39.73644626 902.07359064 39.7353437 901.35860706 39.73420772 900.62195732 C39.69853649 877.44551422 39.67256063 854.26907257 39.65161031 831.09261188 C39.63003071 807.2766298 39.59867437 783.46068015 39.55500887 759.64472783 C39.54884659 756.28121847 39.54279612 752.91770891 39.53681374 749.55419922 C39.53504241 748.56121467 39.53504241 748.56121467 39.53323531 747.54816984 C39.51335502 736.23231347 39.50561103 724.91648625 39.50065396 713.60061556 C39.49540577 703.54460916 39.4792079 693.4886579 39.45433434 683.43268102 C39.44029994 677.62724915 39.43115581 671.82191604 39.43499184 666.01646614 C39.43839653 660.70278176 39.428069 655.38930851 39.40676448 650.07566738 C39.40148662 648.15226103 39.4012721 646.2288328 39.40660437 644.3054266 C39.41311284 641.69173347 39.40121636 639.07873818 39.38476086 636.46510315 C39.39103755 635.71763779 39.39731425 634.97017244 39.40378115 634.20005661 C39.29149833 624.52300053 34.77576106 614.88946965 28.03125 607.984375 C19.81392495 601.13660412 10.63892512 597.1778466 -0.12109375 597.7109375 C-8.75454227 598.57779665 -17.28884985 600.19846808 -23.62890625 606.66015625 C-25 608 -25 608 -27 608 C-27.27972656 608.58265625 -27.55945313 609.1653125 -27.84765625 609.765625 C-29.26816931 612.51997574 -30.95987735 615.03730914 -32.68359375 617.609375 C-36.1701945 623.94112473 -37.44452506 629.34803419 -37.38476086 636.46510315 C-37.38991076 637.2830649 -37.39506067 638.10102665 -37.40036663 638.94377512 C-37.41395717 641.67824794 -37.40630826 644.41223858 -37.39872742 647.14672852 C-37.40416795 649.12941624 -37.41091996 651.11210072 -37.41886932 653.09477997 C-37.43690211 658.53809684 -37.43633662 663.98127734 -37.43273985 669.42461705 C-37.43211634 675.29640106 -37.44873298 681.16813919 -37.46325684 687.03990173 C-37.48605628 697.21150044 -37.49793028 707.38306486 -37.50238609 717.5546875 C-37.50707016 728.22120976 -37.51778643 738.887691 -37.53681374 749.55419922 C-37.53799386 750.21770941 -37.53917399 750.8812196 -37.54038988 751.56483616 C-37.5464154 754.93454617 -37.55255117 758.30425596 -37.55872939 761.67396569 C-37.60227764 785.53409921 -37.63199611 809.39423187 -37.65356445 833.25439453 C-37.67454792 856.43246746 -37.70180629 879.61051915 -37.73754883 902.78857422 C-37.73864831 903.50317479 -37.73974778 904.21777536 -37.74088058 904.9540305 C-37.75192903 912.13042229 -37.76310493 919.30681387 -37.7743742 926.48320531 C-37.79732757 941.10200231 -37.81943035 955.72080054 -37.84101868 970.33959961 C-37.8420123 971.01173048 -37.84300591 971.68386136 -37.84402964 972.37635984 C-37.9102707 1017.25088929 -37.95662212 1062.12544331 -38 1107 C-41.92994058 1103.95363255 -44.95562198 1100.76780102 -47.9375 1096.8125 C-52.09641843 1091.40018932 -56.37410674 1086.11307178 -60.75 1080.875 C-67.85002348 1072.32571348 -74.49745416 1063.46899012 -81.10888672 1054.53955078 C-82.97494115 1052.03365119 -84.86048545 1049.54386268 -86.75390625 1047.05859375 C-95.93643133 1034.98558404 -104.56073654 1022.60141282 -113 1010 C-114.35930157 1007.98041933 -115.71867782 1005.96088891 -117.078125 1003.94140625 C-158.43209476 942.35936467 -195.22525722 876.59545812 -220.63623047 806.73681641 C-221.85231174 803.40467534 -223.08538141 800.07966912 -224.32617188 796.75669861 C-229.9154903 781.77800944 -235.2573753 766.83853434 -239.35546875 751.37011719 C-240.00087865 748.99676895 -240.69444007 746.64328632 -241.40625 744.2890625 C-248.6598754 720.16857323 -253.9931409 695.4774111 -257.59472656 670.55957031 C-257.99454984 668.0344214 -258.48402148 665.54508579 -259.0078125 663.04296875 C-260.14368552 657.51958237 -260.84352374 651.97308329 -261.5 646.375 C-261.61730469 645.42882812 -261.73460937 644.48265625 -261.85546875 643.5078125 C-262.27268444 640.00858414 -262.64140139 636.50557918 -263 633 C-263.08471558 632.20464844 -263.16943115 631.40929687 -263.25671387 630.58984375 C-264.99583892 613.90169331 -265.31471156 597.28802926 -265.26074219 580.52929688 C-265.24939238 576.97579421 -265.25610635 573.42259279 -265.26762295 569.86910057 C-265.33243315 546.24916708 -264.64611972 522.70729363 -260.68359375 499.3671875 C-260.16718047 496.2715106 -259.81319577 493.19627981 -259.53515625 490.0703125 C-259.13832551 485.84921828 -258.41971869 481.78095908 -257.54443359 477.63525391 C-256.96079461 474.81023184 -256.45298071 471.97841248 -255.95703125 469.13671875 C-252.09286566 447.24091426 -247.26487816 425.5607429 -240.6953125 404.30859375 C-239.89838525 401.6626162 -239.15147051 399.00474965 -238.40625 396.34375 C-226.94349815 355.83491227 -210.96708084 317.01524507 -193 279 C-192.5064502 277.94586914 -192.01290039 276.89173828 -191.50439453 275.80566406 C-184.94959348 261.8087215 -177.99229324 248.12533384 -170.46142578 234.62890625 C-169.0112944 232.02031708 -167.57891404 229.4027885 -166.15234375 226.78125 C-136.46888091 172.27067389 -101.08832602 119.83009168 -61.74291992 71.82104492 C-58.17968007 67.4711368 -54.69704336 63.06731645 -51.25 58.625 C-47.41683353 53.69899667 -43.40380872 49.01788355 -39.17578125 44.421875 C-36.88089933 41.86742834 -34.71808866 39.23527893 -32.5625 36.5625 C-28.65069857 31.72906996 -24.53998996 27.1232725 -20.33203125 22.546875 C-18.37594748 20.41058251 -16.45812303 18.25219343 -14.5625 16.0625 C-9.82303436 10.60527875 -4.89812233 5.31441844 0 0 Z " fill="#052E39" transform="translate(999,139)"/>
<path d="M0 0 C18.08884521 -0.50796728 35.83830149 0.83266935 53.80249023 2.76568604 C56.05336629 3.00569029 58.30485376 3.23892016 60.55664062 3.47021484 C77.88672864 5.25280339 95.1546081 7.16207296 112.29785156 10.31933594 C115.12942935 10.83993993 117.96191642 11.35314223 120.79589844 11.86035156 C141.17718019 15.51109784 161.46949228 19.23448994 181.53515625 24.38134766 C184.53625916 25.13459595 187.55141367 25.80833948 190.57202148 26.47802734 C200.77152327 28.76075565 210.70414376 31.8451529 220.67236328 34.96972656 C224.1790973 36.05545052 227.69565853 37.10381771 231.21484375 38.1484375 C261.60282855 47.23890413 291.19734874 58.7249902 320 72 C321.24885986 72.56678467 321.24885986 72.56678467 322.52294922 73.14501953 C363.90489418 91.93694055 403.23091798 116.73845373 438 146 C438.62471191 146.52561523 439.24942383 147.05123047 439.89306641 147.59277344 C455.0317265 160.3954394 470.22452986 173.78031303 483.13671875 188.859375 C485.28886777 191.33186486 487.51980719 193.72271357 489.75 196.125 C495.04574095 201.93426734 499.88123223 208.04512365 504.66943359 214.27539062 C505.9109296 215.88455169 507.16778654 217.48182898 508.42578125 219.078125 C530.09818933 246.74502893 548.70412769 277.09285159 563.92041016 308.76708984 C565.18398836 311.38054219 566.47345107 313.98066286 567.76171875 316.58203125 C602.01935716 386.23756069 622.44246705 462.52547895 633.43701172 539.15527344 C633.98421255 542.89218528 634.56443003 546.62210484 635.16015625 550.3515625 C636.89719087 561.22687657 638.59915309 571.97671004 639 583 C634.2738399 579.05358176 629.80282276 574.94427082 625.46346474 570.57813263 C624.8418278 569.95675075 624.22019086 569.33536887 623.57971644 568.69515723 C621.50474289 566.61982396 619.43337367 564.54093107 617.36196899 562.46203613 C615.85700876 560.95536299 614.35182285 559.44891524 612.84643114 557.94267321 C608.71580964 553.80846866 604.58830505 549.67116445 600.46128082 545.5333693 C596.00769829 541.06929386 591.55117943 536.60815162 587.09495544 532.14671326 C579.87579149 524.918472 572.65795089 517.68891281 565.44125706 510.45820548 C553.25880239 498.25212713 541.07167627 486.05072161 528.88303728 473.85081906 C524.1905854 469.15399812 519.4982674 464.45704344 514.80592918 459.76010895 C514.28464299 459.23831422 513.76335679 458.7165195 513.22627404 458.17891281 C500.82374194 445.76425259 488.4223298 433.34847391 476.02148438 420.93212891 C475.20779355 420.11742534 475.20779355 420.11742534 474.37766453 419.28626312 C461.72031937 406.61312481 449.06404276 393.93892098 436.41009521 381.26239014 C435.86576237 380.71708602 435.32142952 380.1717819 434.76060174 379.60995341 C430.37279001 375.2142947 425.98501575 370.81859858 421.59725128 366.4228927 C403.50310243 348.29605466 385.40391423 330.17426141 367.2989142 312.05826124 C364.74180443 309.49958678 362.18475953 306.94084749 359.62775803 304.38206482 C359.12454041 303.87849843 358.62132279 303.37493205 358.10285616 302.85610608 C350.00834382 294.75565834 341.91927544 286.64979524 333.83232942 278.54179452 C325.70460866 270.3931025 317.57142167 262.24990809 309.43294622 254.11195529 C305.02500825 249.70395424 300.61957226 245.29352531 296.22066689 240.87650871 C292.19298645 236.83234266 288.15843324 232.79516748 284.11832611 228.76341671 C282.65882128 227.30448549 281.20185302 225.8430113 279.74770828 224.37873751 C268.03524224 212.58908679 257.03663176 201.71001954 239.5 201.5 C227.71288404 201.6666839 219.47286202 205.73200856 211 214 C208.6421819 216.8442732 206.75392354 219.75263662 205 223 C204.66097656 223.58910156 204.32195312 224.17820312 203.97265625 224.78515625 C200.20591567 232.68316069 200.95193582 244.17209519 203.125 252.4375 C207.66047445 264.2794147 217.04388433 272.46000212 225.84408569 281.20484924 C227.38433022 282.74640283 228.92391497 284.28861586 230.4628979 285.83142895 C234.68401119 290.05923927 238.91440288 294.27765675 243.14638591 298.49458277 C247.71208497 303.04731458 252.26909882 307.60872527 256.82717896 312.16908264 C264.72205063 320.06604444 272.62285872 327.95703496 280.52726364 335.84445381 C288.81528929 344.11471471 297.10019307 352.38808264 305.38097 360.66560173 C305.89627857 361.18070408 306.41158713 361.69580642 306.9425111 362.22651793 C309.55959813 364.84258992 312.17662972 367.45871737 314.79363997 370.07486617 C333.31915698 388.59408572 351.85161635 407.10634355 370.38818359 425.61450195 C388.39366381 443.59241913 406.39598289 461.57349214 424.39404297 479.55883789 C424.94904261 480.11344295 425.50404225 480.66804802 426.07586007 481.2394593 C431.64950549 486.80914908 437.22308683 492.37890299 442.79662123 497.94870388 C454.15006376 509.29453823 465.50393391 520.63994462 476.85806274 531.98509216 C477.38008088 532.50669843 477.90209902 533.0283047 478.43993589 533.56571722 C513.28612691 568.38431674 548.14231492 603.19290788 583 638 C579.81224909 639.06258364 578.28923732 638.96901032 575.00390625 638.58203125 C573.98506348 638.46424316 572.9662207 638.34645508 571.91650391 638.22509766 C570.80968262 638.08894043 569.70286133 637.9527832 568.5625 637.8125 C567.40669434 637.67376465 566.25088867 637.5350293 565.06005859 637.39208984 C505.46096395 630.11372996 446.83651392 617.46743419 390 598 C388.91944336 597.63197266 387.83888672 597.26394531 386.72558594 596.88476562 C351.26666177 584.71930781 316.56688823 569.60129929 284 551 C283.03400879 550.45375977 282.06801758 549.90751953 281.07275391 549.34472656 C254.18395554 534.11251989 228.68650429 516.8647349 205 497 C204.35981934 496.4642334 203.71963867 495.9284668 203.06005859 495.37646484 C197.01922714 490.30486555 191.02748187 485.23487599 185.546875 479.55078125 C183.89364778 477.89337921 182.15925422 476.3901415 180.375 474.875 C172.25733167 467.86500571 164.59321573 460.11173227 157.65625 451.93359375 C155.74014423 449.69663065 153.74487144 447.54196422 151.75 445.375 C146.65164272 439.72266163 141.99157246 433.76543138 137.34667969 427.74072266 C136.09732134 426.12579789 134.83437127 424.52141307 133.5703125 422.91796875 C121.73511939 407.80384509 111.05602533 392.01664293 101.41162109 375.421875 C100.05559164 373.09537687 98.68096776 370.78097782 97.30078125 368.46875 C53.56257691 294.7409166 27.3656452 210.74873861 8.4375 100.12695312 C8.11072549 97.79139065 7.77611761 95.45692171 7.4375 93.12304688 C4.71577303 74.35282854 2.53635229 55.60923051 1.1875 36.6875 C1.12433594 35.82106873 1.06117187 34.95463745 0.99609375 34.06195068 C0.18141889 22.69144047 -0.15722894 11.39863847 0 0 Z " fill="#052E39" transform="translate(94,1011)"/>
<path d="M0 0 C0.19622069 9.93821447 -0.38462958 19.78499996 -1.125 29.6875 C-1.18702606 30.53028503 -1.24905212 31.37307007 -1.31295776 32.24139404 C-2.97595766 54.43589753 -5.76203365 76.51006989 -8.67950439 98.56994629 C-8.96550129 100.73842473 -9.24469706 102.90766709 -9.52294922 105.07714844 C-10.41034234 111.71657069 -11.66652077 118.14840498 -13.23681641 124.65869141 C-14.48297445 130.11451962 -15.38455822 135.62790197 -16.33303833 141.1418457 C-20.47700305 165.05732079 -25.74697569 188.82509699 -33 212 C-33.612606 214.07532837 -34.21475856 216.15350741 -34.81591797 218.23217773 C-35.85868975 221.82699625 -36.92939522 225.41339252 -38 229 C-38.20141602 229.68094727 -38.40283203 230.36189453 -38.61035156 231.06347656 C-49.9115516 269.01473312 -65.25645215 305.64555642 -83 341 C-83.49242187 341.98210449 -83.98484375 342.96420898 -84.4921875 343.97607422 C-98.17729175 371.08637915 -114.5623034 396.86923567 -133 421 C-133.65379639 421.85996582 -133.65379639 421.85996582 -134.32080078 422.73730469 C-141.50543754 432.15093374 -149.14205489 441.14369586 -157 450 C-157.66410889 450.75385986 -158.32821777 451.50771973 -159.01245117 452.28442383 C-164.36545167 458.30796372 -169.92835752 464.08428801 -175.63891602 469.76928711 C-177.06839717 471.19337492 -178.49240511 472.62278044 -179.91601562 474.05273438 C-185.1161573 479.24563856 -190.40496623 484.23712216 -196 489 C-197.09505645 489.96075255 -198.18885642 490.92293955 -199.28125 491.88671875 C-207.86521361 499.38512566 -216.80196157 506.27550814 -226 513 C-227.0835376 513.79905762 -227.0835376 513.79905762 -228.18896484 514.61425781 C-246.40144765 528.04322104 -265.33755668 539.80728613 -285 551 C-285.91410645 551.52239258 -286.82821289 552.04478516 -287.77001953 552.58300781 C-327.13478693 574.95998215 -371.49075728 594.25403997 -415.46484375 605.75390625 C-418.7996721 606.63070135 -422.02933092 607.68555068 -425.28515625 608.8203125 C-434.21338885 611.83539744 -443.36173437 614.036746 -452.5 616.3125 C-453.46309082 616.55333313 -454.42618164 616.79416626 -455.41845703 617.04229736 C-472.8506371 621.38488832 -490.34533429 625.08045831 -508.02099609 628.27539062 C-511.71321906 628.94360786 -515.39780663 629.64828368 -519.08203125 630.359375 C-532.97761162 632.99848523 -546.91238514 635.01247321 -560.9375 636.8125 C-561.80259186 636.92386292 -562.66768372 637.03522583 -563.55899048 637.14996338 C-566.02704316 637.46537455 -568.49571999 637.77512742 -570.96484375 638.08203125 C-572.07232468 638.22223946 -572.07232468 638.22223946 -573.20217896 638.36528015 C-576.8227975 638.80623162 -580.35188142 639.10476694 -584 639 C-580.03596852 634.2500126 -575.90304847 629.76359735 -571.51286983 625.40658188 C-570.88443486 624.77879064 -570.25599989 624.1509994 -569.60852143 623.50418419 C-567.50921771 621.40823975 -565.40633107 619.31592808 -563.30345154 617.22357178 C-561.77956115 615.7035434 -560.25590166 614.1832835 -558.73245293 612.66281247 C-555.423286 609.36108509 -552.11252272 606.06096959 -548.80053139 602.76207542 C-543.41139041 597.39421261 -538.02574802 592.02284834 -532.64056396 586.65101624 C-526.84053421 580.8657784 -521.04018667 575.08086037 -515.23849666 569.29728746 C-514.74169994 568.80204073 -514.24490322 568.306794 -513.73305206 567.79653979 C-513.23423537 567.29927963 -512.73541868 566.80201947 -512.22148634 566.28969082 C-499.36988869 553.47815953 -486.52445085 540.66046948 -473.68188521 527.83988476 C-471.5824583 525.74405977 -469.48299588 523.64827036 -467.38353477 521.55247964 C-463.66623138 517.84167272 -459.94894857 514.1308452 -456.23169453 510.41998886 C-444.21116145 498.42015165 -432.19013748 486.42080643 -420.16821289 474.42236328 C-419.61896705 473.87418488 -419.06972121 473.32600648 -418.50383156 472.76121661 C-400.68863507 454.98076722 -382.86498176 437.20882107 -365.03747008 419.44072033 C-346.70014263 401.16439198 -328.37279687 382.87810849 -310.05740185 364.57979978 C-307.47034633 361.99517336 -304.88316978 359.41066811 -302.2959156 356.82624054 C-301.53216599 356.06331748 -301.53216599 356.06331748 -300.75298709 355.28498184 C-292.56344474 347.1049164 -284.36334416 338.93551464 -276.15913311 330.77016411 C-267.91308856 322.56276857 -259.67818052 314.34435212 -251.45377474 306.11526981 C-246.9990365 301.65867149 -242.53953652 297.20712519 -238.06680489 292.76857948 C-233.97114799 288.70402293 -229.88961085 284.62582041 -225.81878901 280.5363951 C-224.34500017 279.06076626 -222.86612813 277.59019287 -221.38167363 276.12529394 C-210.17092395 265.05401834 -202.82689088 255.56813128 -202.6875 239.3125 C-202.66259751 232.37023911 -203.15290811 226.96500311 -207 221 C-207.8353125 219.4840625 -207.8353125 219.4840625 -208.6875 217.9375 C-215.20012944 209.66470044 -223.30979933 203.22391228 -234.00390625 201.71777344 C-246.23616934 200.59704583 -256.19987511 202.87720333 -265.90088463 210.75533962 C-273.4413046 217.0444087 -280.28992529 224.02292359 -287.21084595 230.97706604 C-288.72887531 232.49493913 -290.24734697 234.01236998 -291.7662195 235.52939934 C-295.91690759 239.67756724 -300.06136318 243.83191269 -304.20479703 247.98732483 C-308.68226696 252.47552144 -313.165563 256.9578917 -317.64816284 261.44096375 C-325.40670917 269.20186819 -333.16167217 276.96633553 -340.91417313 284.73327827 C-349.04136368 292.87554918 -357.17085553 301.01551188 -365.30332565 309.15250969 C-366.06307814 309.91268609 -366.06307814 309.91268609 -366.83817917 310.68821958 C-369.41068832 313.26213334 -371.98324375 315.83600083 -374.55582051 318.40984701 C-392.75667234 336.61977716 -410.95326023 354.83396238 -429.14697266 373.05102539 C-430.24604547 374.15150578 -431.34511838 375.25198608 -432.44419138 376.35246628 C-432.98876504 376.89773754 -433.5333387 377.4430088 -434.09441459 378.00480343 C-436.8498462 380.76376415 -439.60528024 383.52272245 -442.36071777 386.28167725 C-442.90716473 386.82882266 -443.45361168 387.37596807 -444.01661763 387.93969365 C-456.7289718 400.66825225 -469.44262646 413.39551153 -482.15673828 426.12231445 C-482.70183289 426.66795518 -483.24692751 427.21359591 -483.80854014 427.77577121 C-496.24611325 440.2257829 -508.68428007 452.67520105 -521.12361717 465.12345028 C-521.64586783 465.64607633 -522.16811848 466.16870238 -522.70619491 466.70716558 C-527.40297424 471.40731064 -532.09977724 476.10743204 -536.79670648 480.80742728 C-548.5203861 492.53876331 -560.24257385 504.27158356 -571.96112902 516.00803864 C-580.11888328 524.17824446 -588.27825435 532.3468314 -596.43928738 540.51376236 C-600.86396819 544.94178868 -605.2877824 549.37067265 -609.70943451 553.80172348 C-613.74949241 557.85035419 -617.79179016 561.89673388 -621.83594637 565.9412707 C-623.30555098 567.41184837 -624.77429024 568.88329138 -626.24211748 570.3556431 C-628.22304386 572.34244562 -630.20696128 574.32621015 -632.19172096 576.30918217 C-632.77314006 576.89379997 -633.35455915 577.47841778 -633.95359701 578.08075127 C-637.88586309 582 -637.88586309 582 -639 582 C-639.17536563 574.55692774 -638.72418256 567.44721443 -637.64453125 560.0859375 C-637.43184349 558.5787767 -637.43184349 558.5787767 -637.21485901 557.04116821 C-636.75643772 553.81773844 -636.28550111 550.59632026 -635.8125 547.375 C-635.57348969 545.72395264 -635.57348969 545.72395264 -635.32965088 544.03955078 C-633.17488035 529.17697161 -630.8226323 514.42726487 -627.59277344 499.75585938 C-626.71446612 495.67252617 -625.92691148 491.57240151 -625.12939453 487.47265625 C-621.89973691 470.93600747 -618.25248773 454.5600119 -613.30859375 438.4453125 C-612.15251408 434.6263527 -611.1463526 430.77413235 -610.13671875 426.9140625 C-608.12525104 419.27984585 -605.81127232 411.75994148 -603.375 404.25 C-603.16001862 403.58669678 -602.94503723 402.92339355 -602.72354126 402.23999023 C-588.24193968 357.67714257 -569.83057514 314.39080531 -546 274 C-545.22834529 272.66714186 -544.45744419 271.33384697 -543.6875 270 C-526.02274438 239.68487053 -504.68246253 211.82176581 -481 186 C-480.23067139 185.15501953 -480.23067139 185.15501953 -479.44580078 184.29296875 C-471.64800748 175.74127624 -463.64665286 167.6924582 -455 160 C-453.14515364 158.29240468 -451.29097563 156.58408305 -449.4375 154.875 C-444.11264147 150.04934696 -438.62784056 145.46638477 -433 141 C-432.34612305 140.47889648 -431.69224609 139.95779297 -431.01855469 139.42089844 C-420.63048882 131.16420151 -410.0573256 123.33519257 -399 116 C-398.35305176 115.56655273 -397.70610352 115.13310547 -397.03955078 114.68652344 C-384.36814584 106.21383446 -371.2434665 98.53875441 -358 91 C-357.08589355 90.47760742 -356.17178711 89.95521484 -355.22998047 89.41699219 C-282.37651056 48.00330339 -198.55175234 24.20944903 -116.22207642 11.01493835 C-112.06622032 10.34577015 -107.92121315 9.63777025 -103.78125 8.875 C-70.14412987 2.73305351 -34.18775081 -0.8905637 0 0 Z " fill="#052E39" transform="translate(1907,1011)"/>
</svg>
